<svg width="200" height="200" viewBox="0 0 200 200" fill="none" xmlns="http://www.w3.org/2000/svg" role="img" aria-label="Qualscan MRI scanner mark">
  <defs>
    <linearGradient id="chrome" x1="40" y1="20" x2="160" y2="185" gradientUnits="userSpaceOnUse">
      <stop offset="0" stop-color="#FBFDFF"/>
      <stop offset="0.35" stop-color="#CBD8E6"/>
      <stop offset="0.55" stop-color="#8FA6BC"/>
      <stop offset="0.75" stop-color="#C4D2E0"/>
      <stop offset="1" stop-color="#7E94AB"/>
    </linearGradient>
    <linearGradient id="chromeEdge" x1="40" y1="40" x2="160" y2="170" gradientUnits="userSpaceOnUse">
      <stop offset="0" stop-color="#FFFFFF"/>
      <stop offset="1" stop-color="#9DB1C6"/>
    </linearGradient>
    <linearGradient id="tableGrad" x1="60" y1="95" x2="180" y2="150" gradientUnits="userSpaceOnUse">
      <stop offset="0" stop-color="#EAF1F8"/>
      <stop offset="1" stop-color="#9FB3C8"/>
    </linearGradient>
    <radialGradient id="bore" cx="0.42" cy="0.4" r="0.7">
      <stop offset="0" stop-color="#16314f"/>
      <stop offset="1" stop-color="#0a1828"/>
    </radialGradient>
  </defs>
  <path d="M34 150 L150 150 Q172 150 178 168 L74 168 Q44 168 34 150 Z" fill="url(#chromeEdge)" opacity="0.9"/>
  <rect x="40" y="158" width="120" height="6" rx="3" fill="#8298b0" opacity="0.5"/>
  <circle cx="88" cy="86" r="68" fill="url(#chrome)"/>
  <circle cx="88" cy="86" r="68" fill="none" stroke="#ffffff" stroke-opacity="0.55" stroke-width="2"/>
  <circle cx="88" cy="86" r="58" fill="none" stroke="#7c92a9" stroke-width="3" opacity="0.7"/>
  <circle cx="88" cy="86" r="50" fill="none" stroke="#e7eef6" stroke-width="3" opacity="0.8"/>
  <circle cx="88" cy="86" r="42" fill="url(#bore)"/>
  <circle cx="88" cy="86" r="42" fill="none" stroke="#ffffff" stroke-opacity="0.35" stroke-width="2"/>
  <circle cx="60" cy="64" r="4.5" fill="#1a3a5c"/>
  <circle cx="72" cy="60" r="4.5" fill="#1a3a5c"/>
  <path d="M82 92 L186 120 L186 132 L96 112 Z" fill="url(#tableGrad)"/>
  <path d="M88 104 L184 126" stroke="#7890a8" stroke-width="2" opacity="0.6"/>
  <path d="M96 118 L188 138" stroke="#aebfd0" stroke-width="4" stroke-linecap="round"/>
  <path d="M96 128 L188 148" stroke="#8aa0b6" stroke-width="4" stroke-linecap="round"/>
  <path d="M100 138 L150 149" stroke="#aebfd0" stroke-width="3" stroke-linecap="round" opacity="0.8"/>
</svg>
